<svg xmlns="http://www.w3.org/2000/svg" width="27.027" height="20" viewBox="0 0 27.027 20"><defs><style>.a{fill:#fff;}</style></defs><path class="a" d="M22.872,20H2.013A2.011,2.011,0,0,1,0,17.987V2.013A2.011,2.011,0,0,1,2.013,0H6.966A2.022,2.022,0,0,1,8.591.819l1.745,2.4a.643.643,0,0,0,.537.268H20.4A2.011,2.011,0,0,1,22.416,5.5v9.4a.671.671,0,1,1-1.342,0V5.5a.665.665,0,0,0-.671-.671H10.886a2.022,2.022,0,0,1-1.624-.819l-1.745-2.4a.643.643,0,0,0-.537-.268H2.013a.665.665,0,0,0-.671.671V17.987a.665.665,0,0,0,.671.671H22.872a.655.655,0,0,0,.658-.577L25.691,3.315a.649.649,0,0,0-.161-.537.672.672,0,0,0-.51-.228H11.812a.671.671,0,0,1,0-1.342H25.02a1.98,1.98,0,0,1,1.517.7,2.012,2.012,0,0,1,.47,1.611L24.846,18.282A2.006,2.006,0,0,1,22.872,20Z"/></svg>