<svg xmlns="http://www.w3.org/2000/svg" width="20" height="20" viewBox="0 0 20 20"><defs><style>.a{fill:#fff;}.b{fill:none;stroke:#fff;stroke-linecap:round;stroke-width:1.5px;}</style></defs><g transform="translate(-522 73)"><g transform="translate(522 -73)"><path class="a" d="M532-53a10.011,10.011,0,0,1-10-10,10.011,10.011,0,0,1,10-10,10.011,10.011,0,0,1,10,10A10.011,10.011,0,0,1,532-53Zm0-18.649A8.658,8.658,0,0,0,523.351-63,8.658,8.658,0,0,0,532-54.351,8.658,8.658,0,0,0,540.649-63,8.658,8.658,0,0,0,532-71.649Z" transform="translate(-522 73)"/></g><line class="b" y2="10" transform="translate(532.156 -67.844)"/><line class="b" y2="10" transform="translate(537.156 -62.844) rotate(90)"/></g></svg>