<svg xmlns="http://www.w3.org/2000/svg" width="27.114" height="20" viewBox="0 0 27.114 20"><defs><style>.a{fill:#fff;}</style></defs><path class="a" d="M23.758,18.658H2.013a.665.665,0,0,1-.671-.671V15.638a1.409,1.409,0,1,1,2.819,0,.671.671,0,1,0,1.342,0V2.752A2.752,2.752,0,0,0,.027,2.362.792.792,0,0,0,0,2.55V17.987A2.011,2.011,0,0,0,2.013,20H23.758a.671.671,0,0,0,0-1.342ZM2.752,1.342A1.409,1.409,0,0,1,4.161,2.752V13.275a2.811,2.811,0,0,0-1.409-.389,2.811,2.811,0,0,0-1.409.389V2.752A1.409,1.409,0,0,1,2.752,1.342Z"/><path class="a" d="M69.255,9H51.671a.671.671,0,0,0,0,1.342H69.255a.665.665,0,0,1,.671.671V26.45a.671.671,0,1,0,1.342,0V11.013A2.011,2.011,0,0,0,69.255,9Z" transform="translate(-44.154 -7.792)"/><path class="a" d="M51.671,37.5h4.161a.665.665,0,0,0,.671-.671V32.671A.665.665,0,0,0,55.832,32H51.671a.665.665,0,0,0-.671.671v4.161A.665.665,0,0,0,51.671,37.5Zm.671-4.161h2.819v2.819H52.342Z" transform="translate(-44.154 -27.705)"/><path class="a" d="M111.2,32.671A.665.665,0,0,0,110.53,32h-8.859a.665.665,0,0,0-.671.671v4.161a.665.665,0,0,0,.671.671h8.859a.665.665,0,0,0,.671-.671Zm-1.342,3.49h-7.517V33.342h7.517Z" transform="translate(-87.443 -27.705)"/><path class="a" d="M140.832,82h-4.161a.665.665,0,0,0-.671.671v4.161a.665.665,0,0,0,.671.671h4.161a.665.665,0,0,0,.671-.671V82.671A.665.665,0,0,0,140.832,82Zm-.671,4.161h-2.819V83.342h2.819Z" transform="translate(-117.745 -70.993)"/><path class="a" d="M51.671,87.5H60.53a.665.665,0,0,0,.671-.671V82.671A.665.665,0,0,0,60.53,82H51.671a.665.665,0,0,0-.671.671v4.161A.665.665,0,0,0,51.671,87.5Zm.671-4.161h7.517v2.819H52.342Z" transform="translate(-44.154 -70.993)"/></svg>